<?xml version="1.0" standalone="no"?>
<!DOCTYPE svg PUBLIC "-//W3C//DTD SVG 20010904//EN"
 "http://www.w3.org/TR/2001/REC-SVG-20010904/DTD/svg10.dtd">
<svg version="1.0" xmlns="http://www.w3.org/2000/svg"
 width="194.000000pt" height="194.000000pt" viewBox="0 0 194.000000 194.000000"
 preserveAspectRatio="xMidYMid meet">
<metadata>
Created by potrace 1.11, written by Peter Selinger 2001-2013
</metadata>
<g transform="translate(0.000000,194.000000) scale(0.100000,-0.100000)"
fill="#000000" stroke="none">
<path d="M1125 1686 c-242 -55 -393 -220 -434 -476 -14 -87 -5 -266 18 -342
52 -179 167 -306 330 -369 67 -25 91 -29 200 -36 111 -7 207 8 302 47 56 23
149 82 149 95 0 10 -70 155 -75 155 -3 0 -29 -16 -58 -35 -116 -77 -279 -103
-403 -64 -153 47 -237 190 -243 410 -7 284 138 452 382 444 45 -2 91 -6 102
-8 52 -13 130 -48 174 -80 l49 -35 37 81 37 81 -33 29 c-47 39 -141 82 -220
99 -84 19 -236 21 -314 4z"/>
<path d="M457 1265 c-83 -29 -113 -75 -119 -190 l-3 -50 -50 -5 -50 -5 0 -50
0 -50 45 -1 c25 -1 48 -2 51 -3 3 0 5 -100 5 -221 l-1 -220 68 0 c46 0 67 4
68 13 0 6 1 105 1 220 0 148 3 207 12 208 6 1 33 2 61 3 l49 1 1 53 1 52 -63
0 c-63 0 -63 0 -63 29 0 41 19 90 40 101 10 6 37 10 59 10 39 0 41 1 42 33 1
30 -1 70 -4 74 -10 9 -120 8 -150 -2z"/>
</g>
</svg>
